<svg width="99" height="99" viewBox="0 0 99 99" fill="none" xmlns="http://www.w3.org/2000/svg">
<circle cx="49.5" cy="49.5" r="47.5" fill="#0099FF" stroke="white" stroke-width="4"/>
<path d="M36.6087 25.6104C37.4201 24.7965 38.7344 24.7965 39.5455 25.6104L62.3915 48.5271C63.2028 49.3409 63.2028 50.6593 62.3915 51.473L39.5455 74.3896C39.1399 74.7965 38.6084 75 38.077 75C37.5457 75 37.0143 74.7965 36.6085 74.3896C35.7972 73.5758 35.7972 72.2574 36.6085 71.4437L57.9862 50.0001L36.6085 28.5563C35.7974 27.7426 35.7974 26.4243 36.6087 25.6104Z" fill="white"/>
<path d="M36.6087 25.6104C37.4201 24.7965 38.7344 24.7965 39.5455 25.6104L62.3915 48.5271C63.2028 49.3409 63.2028 50.6593 62.3915 51.473L39.5455 74.3896C39.1399 74.7965 38.6084 75 38.077 75C37.5457 75 37.0143 74.7965 36.6085 74.3896C35.7972 73.5758 35.7972 72.2574 36.6085 71.4437L57.9862 50.0001L36.6085 28.5563C35.7974 27.7426 35.7974 26.4243 36.6087 25.6104Z" fill="white"/>
<path d="M36.6087 25.6104C37.4201 24.7965 38.7344 24.7965 39.5455 25.6104L62.3915 48.5271C63.2028 49.3409 63.2028 50.6593 62.3915 51.473L39.5455 74.3896C39.1399 74.7965 38.6084 75 38.077 75C37.5457 75 37.0143 74.7965 36.6085 74.3896C35.7972 73.5758 35.7972 72.2574 36.6085 71.4437L57.9862 50.0001L36.6085 28.5563C35.7974 27.7426 35.7974 26.4243 36.6087 25.6104Z" fill="white"/>
<path d="M36.6087 25.6104C37.4201 24.7965 38.7344 24.7965 39.5455 25.6104L62.3915 48.5271C63.2028 49.3409 63.2028 50.6593 62.3915 51.473L39.5455 74.3896C39.1399 74.7965 38.6084 75 38.077 75C37.5457 75 37.0143 74.7965 36.6085 74.3896C35.7972 73.5758 35.7972 72.2574 36.6085 71.4437L57.9862 50.0001L36.6085 28.5563C35.7974 27.7426 35.7974 26.4243 36.6087 25.6104Z" stroke="white"/>
</svg>
