<svg width="99" height="99" viewBox="0 0 99 99" fill="none" xmlns="http://www.w3.org/2000/svg">
<circle cx="49.5" cy="49.5" r="47.5" fill="#0099FF" stroke="white" stroke-width="4"/>
<path d="M61.3913 74.3896C60.5799 75.2035 59.2656 75.2035 58.4545 74.3896L35.6085 51.4729C34.7972 50.6591 34.7972 49.3407 35.6085 48.527L58.4545 25.6104C58.8601 25.2035 59.3916 25 59.923 25C60.4543 25 60.9857 25.2035 61.3915 25.6104C62.2028 26.4242 62.2028 27.7426 61.3915 28.5563L40.0138 49.9999L61.3915 71.4437C62.2026 72.2574 62.2026 73.5757 61.3913 74.3896Z" fill="white"/>
<path d="M61.3913 74.3896C60.5799 75.2035 59.2656 75.2035 58.4545 74.3896L35.6085 51.4729C34.7972 50.6591 34.7972 49.3407 35.6085 48.527L58.4545 25.6104C58.8601 25.2035 59.3916 25 59.923 25C60.4543 25 60.9857 25.2035 61.3915 25.6104C62.2028 26.4242 62.2028 27.7426 61.3915 28.5563L40.0138 49.9999L61.3915 71.4437C62.2026 72.2574 62.2026 73.5757 61.3913 74.3896Z" fill="white"/>
<path d="M61.3913 74.3896C60.5799 75.2035 59.2656 75.2035 58.4545 74.3896L35.6085 51.4729C34.7972 50.6591 34.7972 49.3407 35.6085 48.527L58.4545 25.6104C58.8601 25.2035 59.3916 25 59.923 25C60.4543 25 60.9857 25.2035 61.3915 25.6104C62.2028 26.4242 62.2028 27.7426 61.3915 28.5563L40.0138 49.9999L61.3915 71.4437C62.2026 72.2574 62.2026 73.5757 61.3913 74.3896Z" fill="white"/>
<path d="M61.3913 74.3896C60.5799 75.2035 59.2656 75.2035 58.4545 74.3896L35.6085 51.4729C34.7972 50.6591 34.7972 49.3407 35.6085 48.527L58.4545 25.6104C58.8601 25.2035 59.3916 25 59.923 25C60.4543 25 60.9857 25.2035 61.3915 25.6104C62.2028 26.4242 62.2028 27.7426 61.3915 28.5563L40.0138 49.9999L61.3915 71.4437C62.2026 72.2574 62.2026 73.5757 61.3913 74.3896Z" stroke="white"/>
</svg>
