<svg width="142" height="61" viewBox="0 0 142 61" fill="none" xmlns="http://www.w3.org/2000/svg">
<path d="M0.065918 20.4389H2.98576V40.8778H0.065918V20.4389Z" fill="#0099FF"/>
<path d="M60.5609 41.1114C58.4976 41.1114 56.6386 40.6637 54.984 39.7683C53.3294 38.8534 52.0252 37.5979 51.0714 36.0017C50.1371 34.4055 49.6699 32.6244 49.6699 30.6584C49.6699 28.6924 50.1371 26.9113 51.0714 25.3151C52.0252 23.7189 53.3294 22.4731 54.984 21.5777C56.6386 20.6628 58.4976 20.2054 60.5609 20.2054C62.6048 20.2054 64.454 20.6628 66.1086 21.5777C67.7632 22.4731 69.0576 23.7189 69.992 25.3151C70.9263 26.8918 71.3935 28.6729 71.3935 30.6584C71.3935 32.6439 70.9263 34.4347 69.992 36.0309C69.0576 37.6076 67.7632 38.8534 66.1086 39.7683C64.454 40.6637 62.6048 41.1114 60.5609 41.1114ZM60.5609 38.5128C62.0598 38.5128 63.4029 38.1721 64.5903 37.4908C65.7971 36.8095 66.7412 35.8752 67.4225 34.6878C68.1233 33.4809 68.4737 32.1378 68.4737 30.6584C68.4737 29.179 68.1233 27.8456 67.4225 26.6582C66.7412 25.4513 65.7971 24.5073 64.5903 23.826C63.4029 23.1447 62.0598 22.804 60.5609 22.804C59.062 22.804 57.6995 23.1447 56.4731 23.826C55.2663 24.5073 54.3124 25.4513 53.6117 26.6582C52.9304 27.8456 52.5897 29.179 52.5897 30.6584C52.5897 32.1378 52.9304 33.4809 53.6117 34.6878C54.3124 35.8752 55.2663 36.8095 56.4731 37.4908C57.6995 38.1721 59.062 38.5128 60.5609 38.5128Z" fill="#0099FF"/>
<path d="M75.5488 41.053C75.0038 41.053 74.5366 40.8681 74.1473 40.4982C73.758 40.1089 73.5633 39.6223 73.5633 39.0383C73.5633 38.4738 73.758 38.0066 74.1473 37.6368C74.5366 37.2475 75.0038 37.0528 75.5488 37.0528C76.0938 37.0528 76.5513 37.2378 76.9211 37.6076C77.291 37.9774 77.4759 38.4544 77.4759 39.0383C77.4759 39.6223 77.2812 40.1089 76.8919 40.4982C76.5221 40.8681 76.0744 41.053 75.5488 41.053Z" fill="#0099FF"/>
<path d="M88.1429 41.1114C86.6051 41.1114 85.116 40.8778 83.6755 40.4106C82.2546 39.924 81.1353 39.3011 80.3177 38.542L81.3981 36.2645C82.1767 36.9652 83.1694 37.5395 84.3763 37.9872C85.6026 38.4154 86.8582 38.6295 88.1429 38.6295C89.8364 38.6295 91.1017 38.3473 91.9387 37.7828C92.7757 37.1988 93.1942 36.4299 93.1942 35.4761C93.1942 34.7754 92.9606 34.2109 92.4935 33.7826C92.0457 33.3349 91.4812 32.9943 90.7999 32.7607C90.1381 32.5271 89.194 32.2643 87.9677 31.9723C86.4299 31.6025 85.1841 31.2326 84.2303 30.8628C83.296 30.4929 82.4881 29.9284 81.8068 29.1693C81.145 28.3906 80.8141 27.3492 80.8141 26.045C80.8141 24.955 81.0964 23.9719 81.6609 23.096C82.2448 22.22 83.1208 21.5193 84.2887 20.9937C85.4566 20.4681 86.9068 20.2054 88.6393 20.2054C89.8461 20.2054 91.0335 20.3611 92.2015 20.6725C93.3694 20.984 94.3719 21.4317 95.2089 22.0157L94.2454 24.3515C93.3889 23.8065 92.474 23.3977 91.5007 23.1252C90.5274 22.8332 89.5736 22.6872 88.6393 22.6872C86.9847 22.6872 85.7389 22.9889 84.9019 23.5924C84.0843 24.1958 83.6755 24.9744 83.6755 25.9282C83.6755 26.629 83.9091 27.2032 84.3763 27.6509C84.8435 28.0792 85.4177 28.4198 86.099 28.6729C86.7998 28.9065 87.7439 29.1595 88.9313 29.432C90.469 29.8019 91.7051 30.1717 92.6395 30.5416C93.5738 30.9114 94.3719 31.4759 95.0337 32.2351C95.715 32.9943 96.0557 34.0162 96.0557 35.3009C96.0557 36.3715 95.7637 37.3545 95.1797 38.25C94.5957 39.1259 93.7101 39.8267 92.5227 40.3523C91.3353 40.8584 89.8753 41.1114 88.1429 41.1114Z" fill="#0099FF"/>
<path d="M100.321 20.4389H103.241V40.8778H100.321V20.4389Z" fill="#0099FF"/>
<path d="M113.419 22.9792H106.411V20.4389H123.317V22.9792H116.31V40.8778H113.419V22.9792Z" fill="#0099FF"/>
<path d="M141.33 38.3376V40.8778H126.497V20.4389H140.921V22.9792H129.417V29.2569H139.666V31.7387H129.417V38.3376H141.33Z" fill="#0099FF"/>
<path d="M26.9869 20.4389V40.8778H24.5926L12.3293 25.6362V40.8778H9.40942V20.4389H11.8037L24.067 35.6805V20.4389H26.9869Z" fill="#999999"/>
<path d="M36.0245 22.9791V30.1036H46.2731V32.6146H36.0245V40.8778H33.1046V20.4389H47.5286V22.9791H36.0245Z" fill="#999999"/>
<path d="M48.0541 15.1824C47.3694 15.1824 46.6846 15.0274 46.1603 14.7206C41.0994 11.7284 32.3203 11.7284 27.2593 14.7206C26.2161 15.3374 24.5202 15.3374 23.477 14.7206C22.4338 14.1038 22.4338 13.1011 23.477 12.4843C30.5548 8.29654 42.8648 8.29654 49.9426 12.4843C50.9859 13.1011 50.9859 14.1038 49.9426 14.7206C49.4237 15.0274 48.7389 15.1824 48.0541 15.1824Z" fill="#999999"/>
<path d="M57.4072 9.34259C56.7262 9.34259 56.0453 9.1672 55.5239 8.81998C50.5019 5.4409 43.82 3.58312 36.7071 3.58312C29.5943 3.58312 22.9177 5.44448 17.8904 8.81998C16.853 9.51799 15.1665 9.51799 14.1291 8.81998C13.0917 8.12197 13.0917 6.98726 14.1291 6.28925C20.1673 2.23363 28.1792 0 36.7125 0C45.2457 0 53.2576 2.23363 59.2905 6.28567C60.3279 6.98368 60.3279 8.11839 59.2905 8.8164C58.7691 9.1672 58.0882 9.34259 57.4072 9.34259Z" fill="#999999"/>
<path d="M25.4742 45.5694C26.1589 45.5743 26.8426 45.7342 27.3647 46.0448C32.404 49.0731 41.1829 49.136 46.2651 46.1801C47.3127 45.5708 49.0086 45.583 50.0474 46.2072C51.0862 46.8315 51.079 47.8341 50.0314 48.4434C42.9237 52.5804 30.6141 52.4922 23.5664 48.2539C22.5276 47.6296 22.5348 46.627 23.5824 46.0177C24.1035 45.7146 24.7894 45.5645 25.4742 45.5694Z" fill="#999999"/>
<path d="M16.0793 51.3421C16.7602 51.347 17.4399 51.5273 17.9588 51.8782C22.9565 55.2932 29.6249 57.1988 36.7376 57.2497C43.8502 57.3006 50.54 55.4871 55.5914 52.1477C56.6338 51.4572 58.3202 51.4692 59.3525 52.1747C60.3849 52.8801 60.3768 54.0148 59.3344 54.7053C53.2673 58.7176 45.2396 60.8938 36.7066 60.8327C28.1736 60.7716 20.1779 58.4806 14.1742 54.3855C13.1418 53.68 13.1499 52.5454 14.1923 51.8548C14.7162 51.5077 15.3984 51.3372 16.0793 51.3421Z" fill="#999999"/>
<mask id="mask0" mask-type="alpha" maskUnits="userSpaceOnUse" x="49" y="16" width="13" height="27">
<rect x="49.5571" y="16.3511" width="11.6794" height="25.6946" fill="#C4C4C4"/>
</mask>
<g mask="url(#mask0)">
<path d="M60.5942 41.1114C58.5503 41.1114 56.7011 40.6637 55.0465 39.7683C53.4114 38.8534 52.1266 37.6076 51.1923 36.0309C50.2579 34.4347 49.7908 32.6439 49.7908 30.6584C49.7908 28.6729 50.2579 26.8918 51.1923 25.3151C52.1266 23.7189 53.4211 22.4731 55.0757 21.5777C56.7303 20.6628 58.5795 20.2054 60.6234 20.2054C62.2196 20.2054 63.6795 20.4779 65.0031 21.0229C66.3268 21.5485 67.4558 22.3369 68.3902 23.388L66.4923 25.2275C64.9545 23.6119 63.0371 22.804 60.7402 22.804C59.2219 22.804 57.8495 23.1447 56.6232 23.826C55.3969 24.5073 54.4333 25.4514 53.7326 26.6582C53.0513 27.8456 52.7106 29.179 52.7106 30.6584C52.7106 32.1378 53.0513 33.4809 53.7326 34.6878C54.4333 35.8752 55.3969 36.8095 56.6232 37.4908C57.8495 38.1721 59.2219 38.5128 60.7402 38.5128C63.0176 38.5128 64.935 37.6952 66.4923 36.0601L68.3902 37.8996C67.4558 38.9508 66.3171 39.7488 64.9739 40.2939C63.6503 40.8389 62.1904 41.1114 60.5942 41.1114Z" fill="#999999"/>
</g>
</svg>
